<svg width="35" height="36" viewBox="0 0 35 36" fill="none" xmlns="http://www.w3.org/2000/svg">
<path d="M11.7552 14.3804C16.3378 12.1888 19.9241 8.46964 21.9829 3.82068C20.6547 2.426 18.9279 1.42979 17.0683 0.832068L16.0721 0.5C16.0057 0.632827 15.9393 0.832076 15.9393 0.964904C14.3454 5.48103 11.0911 9.13378 6.70778 11.1926C3.65276 12.6537 1.39469 15.3102 0.332068 18.4981L0 19.4943C0.132827 19.5607 0.332071 19.6271 0.464899 19.6271C1.72676 20.092 2.98862 20.6897 4.18406 21.4203C5.8444 18.4317 8.50095 15.908 11.7552 14.3804Z" fill="#43A046"/>
<path d="M31.0151 14.646C28.5578 18.3652 25.1707 21.3538 20.9867 23.3462C17.5996 24.9401 15.0094 27.9287 13.814 31.5151L13.4819 32.6441C14.7438 33.7731 16.2713 34.6365 17.9316 35.1678L18.9279 35.4999C18.9943 35.3671 19.0607 35.1678 19.0607 35.035C20.6546 30.5189 23.9089 26.8661 28.2922 24.8073C31.3472 23.3462 33.6717 20.6897 34.6679 17.5018L35 16.5056C33.6053 16.1071 32.277 15.443 31.0151 14.646Z" fill="#43A046"/>
<path d="M10.8254 29.1909C12.4857 25.2061 15.5407 21.9518 19.4591 20.0922C23.0455 18.3655 26.0341 15.7089 28.0929 12.4547C26.5654 10.9936 25.3035 9.33323 24.3737 7.34082C21.9164 11.8569 18.0645 15.5097 13.3491 17.7678C10.6261 19.0296 8.43447 21.2213 7.1062 23.8778C8.5673 25.2725 9.76275 26.9993 10.6925 28.9253C10.6925 28.9253 10.759 29.0581 10.8254 29.1909Z" fill="#43A046"/>
</svg>
