<svg width="606" height="488" viewBox="0 0 606 488" fill="none" xmlns="http://www.w3.org/2000/svg">
<path d="M283.157 469.288L12.5942 307.204C3.98338 302.311 -3.44936 294.188 4.82628 288.716L272.582 124.011C276.597 121.356 282.715 119.574 286.867 122.022L570.856 288.959C579.469 294.028 581.174 308.441 572.68 313.708L318.565 468.559C313.236 471.871 307.168 473.68 300.958 473.808C294.749 473.936 288.613 472.378 283.157 469.288Z" fill="#F15A24"/>
<path opacity="0.32" d="M365.39 262.772L493.499 331.648L524.159 310.06L478.93 281.077" fill="url(#paint0_linear_644_131)"/>
<path opacity="0.32" d="M182.383 393.455L225.092 418.628L252.455 400.694L206.772 371.076" fill="url(#paint1_linear_644_131)"/>
<path opacity="0.32" d="M205.321 332.034L271.995 376.787L367.311 310.545L307.473 272.882" fill="url(#paint2_linear_644_131)"/>
<path d="M458.891 108.737C459.406 108.027 466.842 97.8125 467.655 97.5951C468.468 97.3777 485.145 106.626 485.145 106.626L487.419 303.412L384.159 248.074L382.042 64.9182L458.891 108.737Z" fill="#DD8C2A"/>
<path d="M296.466 23.4084C275.229 37.5907 221.778 70.6746 203.56 82.5179C199.438 85.2217 198.853 89.1808 198.834 94.2533L201.572 331.149C202.718 332.506 204.294 333.391 206.013 333.644C207.732 333.898 209.481 333.502 210.942 332.529L300.644 278.401C305.104 275.597 308.61 272.725 308.547 267.301L304.992 27.5981C304.978 22.4139 300.68 20.6075 296.466 23.4084Z" fill="#68E1FD"/>
<path d="M304.834 25.9197L275.671 43.8579L275.747 50.4495C275.748 51.0052 275.609 51.5514 275.345 52.0343C275.081 52.5171 274.7 52.9199 274.24 53.2031L251.677 67.1128C251.373 67.3199 251.021 67.437 250.658 67.4515C250.295 67.4661 249.935 67.3775 249.616 67.1953C249.298 67.0131 249.033 66.7441 248.85 66.4173C248.668 66.0905 248.574 65.7183 248.579 65.3404L248.524 60.5408L206.167 87.048C205.762 87.3013 205.428 87.6605 205.198 88.0898C204.968 88.5192 204.85 89.0037 204.856 89.4953L207.594 326.407C207.609 326.739 207.705 327.061 207.875 327.342C208.044 327.624 208.281 327.855 208.562 328.013C208.842 328.171 209.158 328.25 209.477 328.244C209.796 328.237 210.108 328.145 210.382 327.975L308.579 267.381C308.766 269.217 308.47 271.071 307.722 272.746C306.975 274.42 305.804 275.851 304.334 276.886C299.251 280.337 209.856 334.35 209.856 334.35C209.856 334.35 202.772 337.776 200.562 328.969L197.807 90.5848C197.786 89.0438 198.117 87.5199 198.772 86.1382C199.428 84.7565 200.389 83.5565 201.577 82.6367C205.664 79.4693 296.83 22.908 296.83 22.908C296.83 22.908 303.301 19.713 304.834 25.9197Z" fill="#124577"/>
<path opacity="0.32" d="M66.2876 296.438L108.996 321.611L139.656 300.023L94.4108 271.04" fill="url(#paint3_linear_644_131)"/>
<path d="M65.484 246.876C66.7729 243.917 72.5775 241.626 79.5769 241.545C86.5763 241.464 92.7259 243.729 93.8688 246.772C102.237 258.661 110.57 278.069 100.537 291.274C98.1173 294.278 95.0934 296.693 91.6783 298.35C88.2632 300.007 84.5398 300.865 80.7701 300.863L79.5548 300.877C75.7862 300.966 72.044 300.194 68.5915 298.617C65.139 297.04 62.0601 294.695 59.5715 291.748C49.3433 278.697 57.3921 258.923 65.484 246.876Z" fill="#68E1FD"/>
<path opacity="0.5" d="M79.7871 254.408C71.8094 254.5 65.3089 251.695 65.2679 248.143C65.2268 244.591 71.6607 241.637 79.6384 241.544C87.6161 241.452 94.1167 244.257 94.1577 247.809C94.1988 251.361 87.7648 254.315 79.7871 254.408Z" fill="black"/>
<path d="M62.2213 193.535C71.315 209.15 76.9909 226.654 78.8453 244.802C78.5947 222.83 80.2826 200.883 83.8879 179.235C84.0174 178.466 85.1441 178.773 85.0146 179.542C80.9859 203.749 79.3675 228.326 80.1849 252.883C80.1887 252.976 80.1705 253.07 80.1318 253.154C80.0932 253.239 80.0353 253.312 79.9633 253.368C79.8912 253.424 79.807 253.461 79.7181 253.475C79.6292 253.49 79.5382 253.482 79.453 253.451C79.455 253.627 79.4571 253.803 79.4593 253.995C79.4612 254.157 79.4014 254.312 79.293 254.427C79.1847 254.543 79.0368 254.608 78.8817 254.61C78.7267 254.612 78.5773 254.55 78.4663 254.437C78.3554 254.324 78.292 254.17 78.2901 254.009C77.6396 232.872 71.7579 212.262 61.2132 194.17C61.1321 194.031 61.1073 193.864 61.1444 193.706C61.1816 193.548 61.2775 193.412 61.4112 193.328C61.5449 193.244 61.7054 193.218 61.8573 193.257C62.0092 193.296 62.1401 193.395 62.2213 193.535Z" fill="#2C9135"/>
<path d="M71.5748 213.428C71.5748 213.428 62.2919 183.661 42.9966 172.827C42.9966 172.827 46.9571 178.718 45.1979 183.587C43.4387 188.455 40.7386 197.111 49.8092 201.855C58.8799 206.598 64.0542 201.69 63.3941 211.138C62.734 220.586 59.1872 225.204 65.055 229.712C70.9227 234.221 75.9224 238.163 77.9592 247.996C77.9592 247.996 75.4893 223.319 71.5748 213.428Z" fill="#2C9135"/>
<path d="M80.0453 210.178C80.0453 210.178 83.2223 164.234 90.8568 152.545C90.3158 156.987 91.1321 161.495 93.1904 165.431C96.636 172.031 100.262 174.294 98.4241 182.972C96.5859 191.649 88.6742 190.013 89.528 198.659C90.3818 207.306 96.9317 205.598 93.7811 216.547C90.6306 227.497 79.5147 234.825 79.5147 234.825" fill="#2C9135"/>
<path d="M440.074 123.323C440.074 123.323 448.04 112.351 448.883 112.117C449.727 111.883 466.373 121.147 466.373 121.147L468.649 318.094L365.389 262.756L363.272 79.536L440.074 123.323Z" fill="#F9AA43"/>
<path d="M392.208 113.844L371.425 102.083C368.808 100.609 371.098 96.4388 373.7 97.9128L394.483 109.673C397.1 111.147 394.81 115.318 392.208 113.844Z" fill="#F2F2F2"/>
<path d="M446.734 250.951L376.523 213.056" stroke="#F2F2F2" stroke-miterlimit="10"/>
<path d="M446.848 260.838L376.655 224.447" stroke="#F2F2F2" stroke-miterlimit="10"/>
<path d="M446.977 272.038L376.784 235.646" stroke="#F2F2F2" stroke-miterlimit="10"/>
<path d="M447.114 283.845L376.036 245.432" stroke="#F2F2F2" stroke-miterlimit="10"/>
<path d="M391.175 184.708C386.015 166.22 390.525 148.617 401.246 145.39C411.968 142.163 424.842 154.534 430.002 173.021C435.161 191.509 430.652 209.112 419.93 212.339C409.208 215.566 396.334 203.195 391.175 184.708Z" fill="white"/>
<path d="M401.873 173.013C399.898 165.933 401.921 159.103 406.393 157.758C410.864 156.412 416.091 161.06 418.066 168.139C420.042 175.218 418.018 182.048 413.547 183.394C409.075 184.74 403.849 180.092 401.873 173.013Z" fill="#124577"/>
<path d="M424.534 209.797C424.534 209.797 419.321 180.703 407.754 180.949C396.187 181.194 395.364 196.549 395.364 196.549C395.364 196.549 401.449 207.823 410.662 211.621C419.381 215.233 424.534 209.797 424.534 209.797Z" fill="#124577"/>
<path d="M282.936 162.582L235.625 191.851L234.386 117.924L282.574 89.9893L282.936 162.582Z" fill="white"/>
<path d="M257.445 140.589C252.394 139.195 249.948 131.578 251.984 123.575C254.019 115.572 259.764 110.215 264.816 111.609C269.867 113.003 272.313 120.62 270.278 128.623C268.242 136.626 262.497 141.983 257.445 140.589Z" fill="#124577"/>
<path d="M242.605 187.402C242.605 187.402 241.63 141.634 261.884 136.92C274.865 133.889 278.704 165.207 278.704 165.207L242.605 187.402Z" fill="#124577"/>
<path d="M225.951 248.014L295.267 208.491C297.865 207.004 300.251 211.121 297.637 212.607L228.321 252.115C225.723 253.601 223.337 249.484 225.951 247.998L225.951 248.014Z" fill="#144975"/>
<path d="M226.065 257.886L295.398 219.882C298.013 218.443 300.399 222.56 297.769 223.999L228.436 262.002C225.821 263.441 223.435 259.324 226.065 257.886Z" fill="#144975"/>
<path d="M226.194 269.085L295.528 231.097C298.158 229.658 300.528 233.775 297.899 235.214L228.565 273.202C225.936 274.64 223.565 270.523 226.194 269.085Z" fill="#144975"/>
<path d="M226.331 280.892L296.487 240.863C299.085 239.376 301.472 243.493 298.858 244.979L228.702 285.009C226.103 286.495 223.717 282.378 226.331 280.892Z" fill="#144975"/>
<path d="M224.075 166.878C224.995 164.219 225.786 161.513 226.443 158.771C226.728 156.831 224.797 149.493 226.084 149.062C227.372 148.631 229.029 153.604 229.029 153.604C229.029 153.604 232.771 144.536 233.812 144.092C234.853 143.648 237.973 143.324 238.736 144.131C239.499 144.939 241.636 150.178 240.734 151.981C238.773 155.199 236.642 158.3 234.349 161.271C234.014 161.547 230.073 170.649 229.537 170.928C229.002 171.206 224.498 168.89 224.075 166.878Z" fill="#FFC9B5"/>
<path d="M182.216 196.564C182.216 196.564 203.252 187.632 206.892 184.438C210.532 181.244 223.59 164.852 223.59 164.852C223.59 164.852 231.315 167.691 231.269 171.708C231.269 171.708 220.717 190.535 215.776 195.6C210.834 200.666 192.735 213.468 188.732 213.226C184.729 212.984 182.216 196.564 182.216 196.564Z" fill="#C93535"/>
<path d="M197.732 374.269C197.732 374.269 202.726 369.731 208.468 371.392C214.211 373.054 213.031 377.484 209.494 380.293C205.957 383.102 192.331 392.876 188.1 392.829C183.868 392.782 182.904 389.257 182.784 386.826C182.975 383.071 183.348 379.329 183.9 375.613" fill="#2C1D1A"/>
<path d="M194.652 374.048C194.675 374.212 194.733 374.369 194.821 374.507C194.909 374.645 195.025 374.761 195.162 374.847C195.298 374.932 195.451 374.985 195.609 375.002C195.768 375.019 195.928 374.999 196.078 374.944C197.607 374.421 199.105 373.805 200.564 373.1C200.564 373.1 205.441 373.044 202.531 378.15C199.62 383.256 189.407 384.862 186.232 383.01C183.057 381.159 185.102 375.759 185.102 375.759" fill="#2C1D1A"/>
<path d="M209.769 384.082C209.769 384.082 214.763 379.544 220.505 381.206C226.248 382.868 225.068 387.298 221.531 390.107C217.994 392.916 204.368 402.69 200.137 402.643C195.905 402.596 194.941 399.071 194.821 396.64C195.012 392.885 195.385 389.142 195.937 385.426" fill="#2C1D1A"/>
<path d="M206.626 383.767C206.649 383.93 206.707 384.087 206.795 384.225C206.883 384.363 207 384.479 207.136 384.565C207.272 384.65 207.425 384.704 207.584 384.72C207.742 384.737 207.902 384.717 208.052 384.662C209.581 384.139 211.079 383.523 212.539 382.818C212.539 382.818 217.415 382.762 214.505 387.868C211.595 392.974 201.382 394.58 198.207 392.728C195.031 390.877 197.077 385.477 197.077 385.477" fill="#FFC9B5"/>
<path d="M210.324 245.731C212.015 249.583 213.547 305.009 213.082 319.304C212.616 333.598 206.626 383.767 206.626 383.767C206.626 383.767 202.957 389.713 196.645 389.37C190.333 389.027 191.502 383.733 191.502 383.733C191.502 383.733 183.486 387.714 179.865 379.212C178.52 376.027 171.362 287.768 171.245 277.704C171.317 265.676 174.359 253.872 180.08 243.424" fill="#2C1D1A"/>
<path d="M191.487 383.766C191.487 383.766 186.363 271.817 186.817 268.5C187.271 265.182 186.054 293.07 186.25 300.684C186.374 306.123 190.353 376.146 191.487 383.766Z" fill="#6D5854"/>
<path d="M210.324 245.731C210.324 245.731 215.434 206.005 207.425 198.609C199.416 191.213 177.341 186.156 173.277 189.931C169.213 193.706 175.868 235.696 180.05 243.456C184.232 251.216 207.436 248.82 210.324 245.731Z" fill="#EA5353"/>
<path d="M199.412 169.516C199.603 170.073 203.689 185.467 196.9 187.786C190.111 190.104 188.644 181.657 187.961 181.185C187.279 180.713 185.132 179.985 185.22 178.272C185.308 176.559 187.892 176.497 187.892 176.497C187.892 176.497 188.84 172.006 191.879 170.051C194.918 168.095 199.412 169.516 199.412 169.516Z" fill="#FFC9B5"/>
<path d="M193.109 173.957C193.109 173.957 198.802 173.987 201.234 171.431C201.689 170.931 202.039 170.339 202.263 169.692C202.487 169.044 202.579 168.355 202.533 167.668C202.488 166.981 202.306 166.312 201.999 165.702C201.692 165.092 201.266 164.554 200.749 164.124C200.749 164.124 202.941 159.394 198.681 158.243C198.681 158.243 198.247 153.944 189.809 156.01C181.371 158.075 173.767 164.452 173.707 172.501C173.646 180.55 173.133 181.484 170.416 183.356C167.699 185.227 168.535 192.274 175.861 192.477C183.186 192.681 193.147 191.91 194.042 188.123C194.937 184.336 189.379 184.017 188.642 180.185C188.541 179.47 188.576 178.742 188.746 178.042C188.916 177.342 189.217 176.684 189.632 176.105C190.047 175.527 190.567 175.039 191.164 174.671C191.761 174.302 192.422 174.059 193.109 173.957Z" fill="#2C1D1A"/>
<path d="M221.257 239.892C221.257 239.892 227.193 246.32 228.893 247.004C231.498 248.207 234.005 249.628 236.389 251.254C235.607 252.024 234.919 252.892 234.342 253.838C234.34 253.87 234.341 253.902 234.343 253.934C233.583 253.382 233.055 252.972 233.073 253.26C233.084 254.172 238.943 261.913 239.833 263.087C240.724 264.261 238.354 268.16 238.354 268.16C234.646 269.499 230.308 265.629 227.524 263.005C224.74 260.381 223.392 254.252 222.429 253.463C221.466 252.674 213.543 247.374 212.97 245.7C212.396 244.027 221.257 239.892 221.257 239.892Z" fill="#FFC9B5"/>
<path d="M209.273 201.42C210.852 204.938 210.897 208.81 211.587 212.594C212.126 215.292 212.682 218.118 213.313 220.846C213.755 223.631 214.628 226.323 215.898 228.817C218.095 232.52 220.932 235.719 223.418 239.195C224.107 239.949 224.608 240.866 224.88 241.866C225.139 244.311 222.25 251.321 214.01 250.552C209.835 247.081 205.927 243.274 202.324 239.167C197.644 233.572 193.055 214.52 193.427 208.163C193.685 203.84 195.891 198.982 199.807 197.049C201.106 196.481 202.543 196.341 203.922 196.648C205.301 196.955 206.557 197.695 207.519 198.768C208.243 199.543 208.836 200.44 209.273 201.42Z" fill="#EA5353"/>
<path d="M209.332 246.414C209.332 246.414 202.385 240.414 200.65 236.77C198.916 233.126 196.64 226.559 196.64 226.559C196.64 226.559 200.045 245.577 203.12 248.086C205.235 247.726 207.314 247.167 209.332 246.414Z" fill="#2C1D1A"/>
<path d="M288.932 180.882L286.915 182.089C286.658 182.228 286.45 182.449 286.322 182.72C286.215 183.011 286.192 183.328 286.256 183.633C286.271 183.856 286.354 184.068 286.494 184.238C286.558 184.288 286.637 184.315 286.718 184.314C286.798 184.313 286.876 184.284 286.94 184.233L286.237 185.969L285.091 185.311C285.178 185.261 285.255 185.195 285.318 185.114C285.38 185.034 285.427 184.941 285.454 184.842C285.504 184.578 285.501 184.306 285.445 184.042C285.44 183.922 285.407 183.804 285.35 183.699C285.292 183.594 285.212 183.505 285.115 183.438C285.005 183.399 284.888 183.388 284.773 183.406C284.658 183.424 284.549 183.471 284.455 183.542L282.667 184.603C282.351 184.763 282.086 185.017 281.906 185.331C281.767 185.63 281.727 185.968 281.794 186.293C281.798 186.661 281.97 186.867 282.156 186.945C282.278 186.98 282.406 186.986 282.531 186.962C282.656 186.938 282.774 186.886 282.877 186.808L283.198 186.628L285.304 187.82L283.624 191.552L283.426 191.666C283.135 191.828 282.896 192.075 282.741 192.378C282.601 192.67 282.557 193.002 282.614 193.324C282.618 193.708 282.821 193.929 283.006 194.007C283.287 194.047 283.572 193.975 283.804 193.806L285.821 192.599C286.072 192.463 286.274 192.248 286.399 191.984C286.516 191.713 286.55 191.411 286.496 191.119C286.481 190.878 286.392 190.649 286.243 190.466C286.134 190.371 285.98 190.373 285.796 190.471L286.635 188.461L287.905 189.214C287.721 189.32 287.581 189.493 287.511 189.699C287.449 189.946 287.452 190.205 287.519 190.451C287.524 190.824 287.634 191.052 287.85 191.135C288.005 191.229 288.235 191.131 288.511 191.031L290.299 189.987C290.614 189.816 290.877 189.558 291.059 189.242C291.195 188.942 291.229 188.603 291.156 188.281C291.153 188.147 291.118 188.016 291.055 187.9C290.992 187.783 290.903 187.685 290.794 187.613C290.672 187.578 290.544 187.572 290.419 187.595C290.294 187.619 290.176 187.672 290.073 187.749L289.92 187.847L287.553 186.674L289.05 183.153L289.31 183.006C289.599 182.843 289.841 182.602 290.01 182.309C290.146 182.016 290.185 181.684 290.122 181.364C290.118 180.98 289.931 180.758 289.745 180.68C289.459 180.636 289.168 180.708 288.932 180.882Z" fill="#124577"/>
<path d="M266.084 194.123C265.772 194.303 265.498 194.546 265.277 194.836C265.046 195.149 264.872 195.504 264.766 195.882C264.485 195.717 264.161 195.648 263.84 195.685C263.505 195.718 263.181 195.825 262.89 196C262.192 196.372 261.652 197 261.372 197.762C261.109 198.71 261.083 199.713 261.298 200.675L261.894 204.38L261.771 204.381C261.528 204.516 261.335 204.733 261.225 204.996C261.392 205.185 261.497 205.425 261.525 205.68C261.606 205.978 261.61 206.293 261.535 206.592C261.653 206.626 261.776 206.631 261.896 206.607C262.016 206.584 262.129 206.532 262.226 206.456L263.647 205.624C263.781 205.544 263.896 205.433 263.982 205.3C264.048 205.184 264.073 205.048 264.055 204.915L263.16 199.405C263.08 199.053 263.076 198.687 263.148 198.333C263.178 198.201 263.234 198.078 263.312 197.969C263.39 197.861 263.489 197.771 263.602 197.704C263.702 197.612 263.829 197.561 263.962 197.56C264.095 197.558 264.223 197.606 264.325 197.695C264.571 198.008 264.721 198.392 264.753 198.794L265.301 202.228L265.177 202.23C264.933 202.363 264.739 202.58 264.631 202.844C264.53 203.137 264.507 203.452 264.564 203.757C264.569 204.141 264.741 204.379 264.911 204.457C265.026 204.491 265.147 204.496 265.264 204.472C265.381 204.448 265.492 204.397 265.586 204.321L267.007 203.473C267.148 203.396 267.268 203.285 267.357 203.149C267.423 203.033 267.449 202.897 267.43 202.764L266.535 197.254C266.461 196.896 266.457 196.526 266.523 196.166C266.551 196.037 266.604 195.917 266.68 195.811C266.756 195.705 266.852 195.617 266.962 195.553C267.059 195.47 267.181 195.424 267.307 195.422C267.432 195.421 267.555 195.464 267.654 195.545C267.913 195.851 268.069 196.237 268.098 196.644L268.645 200.062L268.523 200.143C268.281 200.273 268.088 200.484 267.976 200.741C267.876 201.034 267.853 201.349 267.909 201.654C267.914 202.038 268.086 202.276 268.256 202.354C268.426 202.432 268.671 202.349 268.993 202.186L270.887 201.06C271.165 200.913 271.393 200.681 271.541 200.396C271.66 200.097 271.688 199.768 271.623 199.451C271.618 199.323 271.588 199.197 271.533 199.082C271.479 198.967 271.402 198.865 271.307 198.783C271.219 198.727 271.117 198.698 271.014 198.699C270.911 198.701 270.81 198.732 270.723 198.79L270.6 198.791L269.821 194L269.943 193.918C270.192 193.786 270.391 193.569 270.505 193.304C270.607 193.011 270.63 192.696 270.572 192.391C270.567 192.007 270.395 191.785 270.225 191.691C270.055 191.597 269.81 191.696 269.473 191.859L268.342 192.529C268.154 192.621 267.999 192.774 267.901 192.966C267.845 193.192 267.848 193.429 267.909 193.654C267.664 193.45 267.358 193.341 267.044 193.344C266.656 193.498 266.322 193.769 266.084 194.123Z" fill="#124577"/>
<path d="M278.724 186.92L276.692 188.112C276.437 188.254 276.23 188.474 276.099 188.743C275.984 189.037 275.955 189.36 276.018 189.672C276.032 189.89 276.116 190.097 276.255 190.261C276.364 190.372 276.502 190.354 276.686 190.256L275.998 192.008L274.837 191.349C274.924 191.304 275.002 191.241 275.064 191.163C275.127 191.085 275.173 190.995 275.201 190.897C275.258 190.634 275.255 190.36 275.192 190.097C275.186 189.975 275.153 189.855 275.096 189.747C275.039 189.64 274.959 189.547 274.861 189.477C274.751 189.438 274.634 189.427 274.519 189.445C274.404 189.463 274.295 189.509 274.201 189.581L272.413 190.625C272.101 190.793 271.838 191.045 271.652 191.354C271.516 191.66 271.482 192.004 271.556 192.331C271.56 192.683 271.732 192.905 271.917 192.983C272.052 193.016 272.191 193.017 272.326 192.988C272.462 192.959 272.589 192.9 272.7 192.814L273.021 192.619L275.127 193.826L273.447 197.542L273.248 197.672C272.953 197.825 272.709 198.068 272.549 198.368C272.41 198.667 272.371 199.005 272.437 199.33C272.441 199.714 272.628 199.936 272.829 199.997C272.979 200.021 273.132 200.015 273.279 199.977C273.427 199.94 273.566 199.873 273.688 199.779L275.705 198.572C275.957 198.431 276.16 198.21 276.282 197.941C276.405 197.678 276.44 197.379 276.38 197.092C276.371 196.848 276.287 196.614 276.142 196.423C276.017 196.312 275.879 196.314 275.696 196.428L276.534 194.418L277.789 195.188C277.693 195.235 277.607 195.303 277.536 195.386C277.466 195.469 277.412 195.567 277.379 195.672C277.325 195.92 277.328 196.178 277.388 196.424C277.394 196.556 277.427 196.685 277.484 196.803C277.541 196.921 277.621 197.025 277.719 197.109C277.814 197.159 277.92 197.185 278.028 197.184C278.135 197.183 278.24 197.154 278.334 197.101L280.122 196.057C280.435 195.891 280.698 195.639 280.883 195.328C281.021 195.023 281.055 194.678 280.98 194.351C280.975 193.999 280.804 193.777 280.618 193.683C280.506 193.642 280.385 193.63 280.268 193.649C280.15 193.667 280.038 193.714 279.942 193.787L279.789 193.868L277.437 192.68L278.935 189.174L279.195 189.011C279.49 188.857 279.734 188.615 279.894 188.315C280.038 188.029 280.083 187.701 280.022 187.385C280.018 187.001 279.83 186.779 279.645 186.702C279.485 186.665 279.32 186.666 279.161 186.704C279.002 186.742 278.853 186.815 278.724 186.92Z" fill="#124577"/>
<path d="M237.969 210.961L235.861 212.217C235.543 212.382 235.274 212.634 235.085 212.946C234.953 213.247 234.913 213.583 234.973 213.908C234.978 214.038 235.014 214.166 235.077 214.279C235.14 214.393 235.228 214.489 235.334 214.56C235.457 214.601 235.588 214.611 235.716 214.59C235.844 214.569 235.966 214.517 236.071 214.439L236.209 214.357L235.39 219.407L233.138 216.233L233.276 216.231C233.55 216.077 233.773 215.841 233.915 215.552C234.051 215.258 234.09 214.926 234.027 214.607C234.022 214.223 233.835 214.001 233.65 213.923C233.374 213.882 233.093 213.954 232.867 214.124L232.79 214.125L230.819 215.284C230.501 215.448 230.232 215.7 230.043 216.013C229.911 216.313 229.872 216.649 229.931 216.974C229.938 217.107 229.974 217.236 230.037 217.352C230.099 217.468 230.187 217.567 230.292 217.642C230.415 217.677 230.543 217.683 230.668 217.659C230.793 217.636 230.911 217.583 231.014 217.506L231.167 217.424L235.996 223.944L235.614 224.157C235.298 224.324 235.03 224.576 234.838 224.886C234.703 225.191 234.664 225.533 234.726 225.863C234.731 226.247 234.918 226.469 235.103 226.547C235.377 226.592 235.658 226.526 235.886 226.362L239.538 224.208C239.856 224.043 240.125 223.791 240.314 223.479C240.458 223.182 240.498 222.842 240.426 222.517C240.422 222.117 240.25 221.895 240.049 221.818C239.913 221.79 239.774 221.793 239.639 221.825C239.504 221.857 239.377 221.917 239.266 222.003L239.189 222.003L237.89 222.771L236.781 221.263L238.225 213.118L238.363 213.036C238.635 212.887 238.857 212.656 239.001 212.373C239.13 212.077 239.169 211.747 239.113 211.428C239.109 211.044 238.922 210.822 238.736 210.744C238.464 210.722 238.193 210.799 237.969 210.961Z" fill="#124577"/>
<path d="M248.315 204.857L248.238 204.858L246.114 206.114C245.799 206.276 245.531 206.522 245.337 206.827C245.205 207.128 245.166 207.464 245.225 207.789C245.231 207.921 245.269 208.05 245.335 208.164C245.4 208.278 245.492 208.373 245.602 208.44C245.711 208.482 245.828 208.496 245.943 208.48C246.058 208.465 246.168 208.421 246.263 208.353L246.416 208.271L245.582 213.321L243.33 210.147L243.468 210.145C243.748 209.994 243.976 209.757 244.122 209.466C244.245 209.168 244.279 208.839 244.218 208.52C244.214 208.136 244.093 207.914 243.857 207.853C243.721 207.828 243.582 207.832 243.448 207.864C243.314 207.896 243.187 207.955 243.074 208.038L241.118 209.196C240.79 209.359 240.515 209.618 240.327 209.942C240.19 210.235 240.156 210.569 240.23 210.887C240.232 211.021 240.266 211.152 240.329 211.269C240.392 211.385 240.483 211.484 240.592 211.555C240.704 211.594 240.824 211.605 240.942 211.587C241.059 211.569 241.171 211.522 241.268 211.451L241.42 211.369L246.251 217.97L245.869 218.198C245.553 218.36 245.289 218.613 245.108 218.927C244.97 219.237 244.931 219.585 244.996 219.92C245.001 220.288 245.188 220.526 245.373 220.588C245.523 220.612 245.676 220.605 245.824 220.568C245.971 220.531 246.11 220.463 246.232 220.37L249.9 218.199C250.217 218.034 250.485 217.782 250.676 217.47C250.808 217.17 250.847 216.834 250.788 216.509C250.784 216.125 250.596 215.903 250.411 215.825C250.137 215.78 249.856 215.846 249.628 216.01L248.329 216.777L247.235 215.286L248.679 207.125L248.818 207.123C249.098 206.972 249.326 206.735 249.472 206.444C249.6 206.153 249.634 205.827 249.569 205.514C249.564 205.13 249.392 204.892 249.191 204.831C249.052 204.771 248.901 204.742 248.75 204.747C248.599 204.751 248.451 204.789 248.315 204.857Z" fill="#124577"/>
<path d="M255.891 200.145C255.578 200.323 255.303 200.565 255.084 200.858C254.858 201.174 254.685 201.528 254.573 201.904C254.288 201.752 253.967 201.689 253.648 201.723C253.313 201.757 252.99 201.864 252.698 202.038C251.997 202.398 251.454 203.022 251.179 203.784C250.922 204.738 250.897 205.745 251.106 206.713L251.702 210.402L251.594 210.403C251.348 210.534 251.154 210.752 251.048 211.018C250.938 211.302 250.91 211.614 250.966 211.915C250.97 212.315 251.142 212.537 251.313 212.647C251.483 212.757 251.728 212.642 252.049 212.478L253.47 211.63C253.61 211.558 253.726 211.445 253.805 211.306C253.828 211.247 253.84 211.185 253.839 211.121C253.839 211.058 253.825 210.996 253.801 210.938L252.921 205.412C252.838 205.06 252.834 204.693 252.909 204.34C252.941 204.207 252.999 204.082 253.08 203.974C253.161 203.865 253.263 203.776 253.379 203.71C253.474 203.629 253.592 203.583 253.716 203.582C253.839 203.58 253.959 203.623 254.056 203.702C254.306 204.019 254.456 204.409 254.484 204.818L255.046 208.235L254.923 208.237C254.683 208.376 254.491 208.591 254.377 208.851C254.269 209.142 254.246 209.459 254.31 209.764C254.315 210.164 254.487 210.386 254.657 210.48C254.827 210.574 255.072 210.475 255.409 210.327L256.83 209.479C256.966 209.401 257.081 209.29 257.165 209.155C257.241 209.043 257.273 208.905 257.253 208.77L256.358 203.244C256.274 202.892 256.269 202.525 256.346 202.172C256.375 202.042 256.429 201.919 256.504 201.811C256.58 201.703 256.675 201.612 256.785 201.543C256.888 201.453 257.018 201.403 257.152 201.402C257.287 201.4 257.418 201.447 257.523 201.534C257.774 201.851 257.924 202.24 257.951 202.649L258.514 206.067L258.391 206.068C258.147 206.204 257.955 206.42 257.844 206.683C257.731 206.972 257.708 207.292 257.778 207.596C257.782 207.98 257.954 208.218 258.124 208.312C258.242 208.344 258.365 208.349 258.485 208.325C258.604 208.302 258.717 208.251 258.815 208.176L260.71 207.066C260.988 206.919 261.216 206.687 261.364 206.402C261.438 206.103 261.435 205.788 261.353 205.49C261.329 205.24 261.217 205.008 261.038 204.838C260.94 204.778 260.828 204.748 260.714 204.749C260.6 204.75 260.489 204.784 260.392 204.845L260.269 204.847L259.506 200.055L259.629 200.054C259.881 199.917 260.079 199.695 260.191 199.423C260.306 199.129 260.335 198.806 260.273 198.494C260.268 198.126 260.096 197.888 259.926 197.81C259.809 197.778 259.685 197.773 259.566 197.797C259.446 197.82 259.333 197.871 259.235 197.946L258.105 198.615C257.913 198.704 257.758 198.858 257.664 199.052C257.602 199.278 257.604 199.517 257.671 199.74C257.427 199.532 257.122 199.417 256.806 199.414C256.441 199.564 256.124 199.817 255.891 200.145Z" fill="#124577"/>
<defs>
<linearGradient id="paint0_linear_644_131" x1="469.163" y1="313.32" x2="490.557" y2="335.143" gradientUnits="userSpaceOnUse">
<stop stop-color="#5B1D5C"/>
<stop offset="1" stop-color="#F15A24"/>
</linearGradient>
<linearGradient id="paint1_linear_644_131" x1="211.966" y1="391.785" x2="237.187" y2="414.389" gradientUnits="userSpaceOnUse">
<stop stop-color="#5B1D5C"/>
<stop offset="1" stop-color="#F15A24"/>
</linearGradient>
<linearGradient id="paint2_linear_644_131" x1="277.071" y1="307.411" x2="305.236" y2="346.495" gradientUnits="userSpaceOnUse">
<stop stop-color="#5B1D5C"/>
<stop offset="1" stop-color="#F15A24"/>
</linearGradient>
<linearGradient id="paint3_linear_644_131" x1="97.5102" y1="292.941" x2="122.732" y2="315.545" gradientUnits="userSpaceOnUse">
<stop offset="0.01" stop-color="#A91D5C"/>
<stop offset="1" stop-color="#F15A24"/>
</linearGradient>
</defs>
</svg>
