<svg width="532" height="471" viewBox="0 0 532 471" fill="none" xmlns="http://www.w3.org/2000/svg">
<g clip-path="url(#clip0_703_373)">
<path opacity="0.18" d="M493.071 276.525C477.43 250.292 461.89 224.031 454.704 194.504C446.307 159.969 451.146 122.024 437.839 88.683C426.821 61.127 410.46 28.6641 383.716 13.3823C366.966 3.77007 347.077 1.42457 327.792 0.431688C282.714 -1.74114 236.324 2.96426 194.342 20.3037C152.058 37.7871 130.584 63.0552 117.838 107.318C109.384 136.715 103.911 167.926 86.3263 192.964C73.4796 211.239 55.117 224.823 39.9659 241.241C-13.9556 299.678 -19.6876 413.758 62.6493 450.48C95.5005 465.158 132.687 465.748 168.663 466.093L356.654 467.892C380.922 468.122 408.401 473.907 431.92 468.899C456.79 463.556 480.119 452.632 500.143 436.954C508.913 430.134 517.079 422.248 522.754 412.665C541.376 381.209 528.904 340.717 511.578 308.513C505.759 297.749 499.422 287.115 493.071 276.525Z" fill="#68E1FD"/>
<path opacity="0.47" d="M271.97 460.107C163.739 460.107 76 439.601 76 414.305C76 389.009 163.739 368.503 271.97 368.503C380.201 368.503 467.939 389.009 467.939 414.305C467.939 439.601 380.201 460.107 271.97 460.107Z" fill="white"/>
<path d="M177.679 438.048H229.181L277.298 389.972H361.047L349.467 410.593H407.335V409.154H351.93L363.495 388.533H276.708L228.576 436.609H181.409L206.872 413.586H161.189L175.879 398.894L174.871 397.887L157.703 415.025H203.142L177.679 438.048Z" fill="#68E1FD"/>
<path d="M241.149 450.826L273.712 418.291H247.212V419.73H270.241L240.127 449.804L241.149 450.826Z" fill="#68E1FD"/>
<path d="M293.674 441.3L301.393 429.457H354.753L366.534 410.247L365.31 409.484L353.947 428.018H300.616L292.464 440.508L293.674 441.3Z" fill="#68E1FD"/>
<path d="M397.47 429.457H421.132V428.018H399.716L410.821 403.772L409.51 403.182L397.47 429.457Z" fill="#68E1FD"/>
<path d="M175.159 399.182C177.794 399.182 182.273 398.635 182.273 396.577C182.273 394.519 177.794 393.958 175.159 393.958C172.523 393.958 168.044 394.505 168.044 396.577C168.044 398.649 172.509 399.182 175.159 399.182ZM175.159 395.397C178.529 395.397 180.646 396.189 180.92 396.62C180.718 396.951 178.601 397.743 175.159 397.743C171.717 397.743 169.801 397.009 169.499 396.577C169.801 396.145 171.904 395.397 175.159 395.397Z" fill="#68E1FD"/>
<path d="M240.112 454.826C242.748 454.826 247.227 454.279 247.227 452.207C247.227 450.135 242.748 449.588 240.112 449.588C237.477 449.588 232.998 450.149 232.998 452.207C232.998 454.265 237.462 454.826 240.112 454.826ZM240.112 451.027C243.482 451.027 245.599 451.819 245.787 452.25C245.599 452.596 243.482 453.387 240.112 453.387C236.742 453.387 234.755 452.639 234.452 452.207C234.755 451.718 236.843 451.027 240.112 451.027Z" fill="#68E1FD"/>
<path d="M291.773 445.415C294.423 445.415 298.887 444.854 298.887 442.796C298.887 440.739 294.423 440.178 291.773 440.178C289.123 440.178 284.658 440.739 284.658 442.796C284.658 444.854 289.137 445.415 291.773 445.415ZM291.773 441.616C295.143 441.616 297.26 442.408 297.533 442.84C297.332 443.185 295.215 443.976 291.773 443.976C288.331 443.976 286.415 443.228 286.113 442.796C286.415 442.365 288.561 441.645 291.773 441.645V441.616Z" fill="#68E1FD"/>
<path d="M426.245 431.342C428.895 431.342 433.36 430.795 433.36 428.723C433.36 426.651 428.895 426.119 426.245 426.119C423.595 426.119 419.131 426.666 419.131 428.723C419.131 430.781 423.61 431.342 426.245 431.342ZM426.245 427.558C429.615 427.558 431.732 428.349 432.006 428.767C431.804 429.112 429.687 429.903 426.245 429.903C422.803 429.903 420.888 429.169 420.585 428.723C420.888 428.292 422.976 427.558 426.245 427.558Z" fill="#68E1FD"/>
<path d="M409.87 404.232C412.506 404.232 416.985 403.671 416.985 401.613C416.985 399.556 412.506 398.994 409.87 398.994C407.234 398.994 402.755 399.541 402.755 401.613C402.755 403.685 407.22 404.232 409.87 404.232ZM409.87 400.433C413.24 400.433 415.357 401.225 415.544 401.657C415.357 401.988 413.24 402.793 409.87 402.793C406.5 402.793 404.512 402.045 404.21 401.613C404.512 401.124 406.658 400.376 409.87 400.376V400.433Z" fill="#68E1FD"/>
<path opacity="0.1" d="M343.131 410.578C344.388 411.085 345.414 412.038 346.011 413.255C347.451 417.053 341.23 420.32 342.094 424.291C343.145 429.011 351.426 426.939 354.292 430.839C356.136 433.328 354.566 437.127 351.916 438.739C349.266 440.35 345.982 440.35 342.886 440.321C307.898 439.919 272.93 438.739 237.981 436.782C215.542 435.53 192.542 433.832 172.12 424.464C170.416 423.9 168.974 422.74 168.058 421.198C167.755 420.281 167.667 419.307 167.802 418.351C167.937 417.395 168.291 416.483 168.836 415.686C174.035 406.434 186.522 404.923 197.136 404.506C195.394 399.757 198.576 394.347 203.041 391.872C207.506 389.397 212.734 389.166 217.803 388.994L233.372 388.404C239.767 388.159 246.636 388.058 251.922 391.627C256.243 394.505 258.763 399.412 262.738 402.721C272.013 410.42 285.781 407.614 297.461 404.794C305.253 402.909 314.096 401.268 321.945 403.513C325.315 404.477 327.807 406.923 330.975 408.002C335.022 409.326 339.17 408.549 343.131 410.578Z" fill="#020202"/>
<path d="M312.166 381.382C313.693 384.72 315.262 388.174 315.234 391.843C315.05 395.466 313.769 398.949 311.561 401.829C306.961 408.27 300.045 412.684 292.262 414.147C291.249 414.435 290.167 414.353 289.209 413.917C288.559 413.476 288.057 412.849 287.769 412.118C286.026 408.319 286.919 403.844 288.244 399.872C289.569 395.901 291.355 391.958 291.297 387.771C291.197 379.914 280.395 364.359 293.602 361.035C304.619 358.186 308.868 374.259 312.166 381.382Z" fill="#FFBBAB"/>
<path d="M240.4 369.237C241.48 372.733 242.561 376.432 242.057 380C241.387 383.569 239.649 386.85 237.073 389.411C231.658 395.178 224.223 398.632 216.32 399.052C215.273 399.201 214.207 398.977 213.31 398.419C212.718 397.894 212.301 397.201 212.114 396.433C210.89 392.433 212.374 388.13 214.217 384.375C216.061 380.619 218.351 376.935 218.855 372.777C219.805 364.978 211.164 348.127 224.702 346.588C236.008 345.235 238.082 361.725 240.4 369.237Z" fill="#FFBBAB"/>
<path d="M261.528 233.716C252.498 241.932 243.698 250.451 235.288 259.3C230.163 264.776 225.322 270.511 220.785 276.482C213.9 285.346 211.351 292.483 210.962 303.937C210.372 320.917 209.81 338.098 213.339 354.718C214.174 358.632 215.47 362.833 218.812 365.035C223.737 368.287 230.808 365.222 233.991 360.243C237.174 355.264 237.563 349.077 238.024 343.177C239.032 330.442 240.415 317.276 243.583 304.8C245.398 297.692 251.476 295.505 257.28 291.663C268.268 284.468 286.545 274.726 291.945 261.991C295.626 252.676 298.658 243.118 301.019 233.385L261.528 233.716Z" fill="#282328"/>
<path d="M279.444 235.212C275.921 247.328 272.613 259.511 269.521 271.762C267.131 281.187 264.826 290.655 262.896 300.181C261.269 308.283 257.683 320.24 259.411 328.212C260.332 331.653 261.754 334.94 263.631 337.968L282.123 371.223C283.096 373.321 284.528 375.175 286.314 376.647C290.16 379.338 298.729 375.137 301.897 372.489C305.066 369.841 305.959 366.186 305.757 362.157C304.735 342.098 294.48 333.133 292.91 313.103C292.91 313.103 331.551 278.755 326.799 235.399C322.046 192.043 279.444 235.212 279.444 235.212Z" fill="#282328"/>
<path d="M226.286 167.106C226.531 171.294 227.885 174.949 231.529 176.157C231.833 176.269 232.146 176.356 232.465 176.416C239.162 177.755 247.947 172.661 254.068 168.214C256.616 166.372 259.059 164.388 261.384 162.271V117.477L228.807 150.803C228.807 150.803 225.825 159.753 226.286 167.106Z" fill="#1870FF"/>
<path d="M253.996 168.07C255.543 176.203 256.506 184.436 256.876 192.705C257.668 206.447 259.584 220.046 261.499 233.701C274.461 236.407 287.798 235.37 300.99 233.37C305.599 232.665 310.179 231.859 314.73 231.039C316.271 230.766 317.61 230.003 319.194 229.6C326.77 227.715 329.823 190.576 330.514 178.935C331.177 167.855 331.402 156.77 331.191 145.68C331.033 137.636 330.399 128.945 325.142 122.873C318.143 114.786 304.619 109.433 294.351 107.548C291.036 106.87 287.639 106.681 284.269 106.987C279.474 107.752 274.843 109.323 270.573 111.634C265.474 114.153 260.938 116.282 258.432 121.319C255.686 127.138 253.771 133.314 252.743 139.665C251.115 149.148 252.181 158.746 253.996 168.07Z" fill="#1870FF"/>
<path opacity="0.1" d="M301.019 233.385C305.627 232.68 310.207 231.874 314.758 231.054C316.299 230.78 317.639 230.018 319.223 229.615C326.799 227.73 329.852 190.59 330.543 178.949L312.281 157.983C312.281 157.983 317.365 218.463 301.019 233.385Z" fill="#020202"/>
<path d="M277.5 97.9931C278.734 99.3289 280.414 100.168 282.224 100.353C283.735 100.518 285.259 100.547 286.775 100.439H287.625C287.838 100.403 288.058 100.443 288.244 100.554C288.42 100.735 288.519 100.978 288.518 101.231C288.849 104.256 288.907 107.304 288.691 110.339C288.691 110.886 288.604 111.433 288.547 111.98C288.434 112.553 288.484 113.146 288.691 113.692C288.903 114.005 289.176 114.272 289.492 114.48C289.808 114.687 290.162 114.83 290.534 114.901C291.862 115.349 293.252 115.587 294.653 115.606C297.649 115.606 300.414 114.095 303.035 112.656C302.833 107.466 303.108 102.269 303.856 97.1297C304.821 90.5393 306.564 83.8193 305.843 77.157C305.682 74.537 304.728 72.028 303.107 69.9622C300.702 67.2713 296.828 66.3936 293.213 66.4079C288.423 66.3216 283.71 67.6101 279.632 70.1205C278.191 71.1421 277.961 72.4372 277.615 74.1352C277.097 76.7541 276.679 79.4017 276.391 82.0494C276.055 85.0712 275.868 88.1074 275.829 91.158C275.801 93.5179 275.945 96.1512 277.5 97.9931Z" fill="#FFBBAB"/>
<path d="M282.8 71.6314C286.213 72.2069 290.001 71.6314 293.141 72.9264C297.634 74.7539 299.55 80.5817 298.052 85.1864C299.348 85.6612 299.579 83.3157 300.587 82.3084C301.595 81.3012 303.856 82.625 304.014 84.251C303.929 85.8869 303.434 87.4751 302.574 88.8701C301.349 91.7408 301.135 94.9423 301.969 97.9499C302.171 98.655 302.689 99.4896 303.41 99.3025C304.13 99.1155 304.619 97.8636 305.051 97.3887C305.738 96.5585 306.495 95.7883 307.313 95.0864C308.897 93.6474 310.639 92.4819 312.252 91.1293C315.133 88.7262 317.797 85.4741 317.624 81.7328C317.555 80.1881 317.057 78.6932 316.184 77.416C315.447 76.3294 314.497 75.404 313.39 74.6963C312.929 74.4086 312.411 74.092 312.31 73.574C312.278 73.2775 312.313 72.9777 312.411 72.6962C313.405 68.8973 311.287 64.8251 308.162 62.4652C304.868 60.3189 301.112 58.9826 297.202 58.5656C294.696 58.1195 292.161 57.7598 289.641 57.472C287.549 57.3695 285.493 56.8817 283.578 56.0331C284.074 54.6612 284.747 53.3599 285.58 52.1623C283.79 52.7224 282.088 53.5314 280.525 54.5653C280.612 53.6948 280.841 52.8443 281.201 52.0471C278.451 52.9825 275.556 54.0329 273.741 56.364C272.689 57.8221 272.101 59.5634 272.055 61.3604C272.009 63.1574 272.506 64.9265 273.482 66.4367C275.426 69.5017 278.494 70.7536 281.878 71.545L282.8 71.6314Z" fill="#FC682D"/>
<path d="M286.775 100.439H287.625C287.838 100.403 288.058 100.443 288.244 100.554C288.42 100.735 288.519 100.978 288.518 101.231C288.849 104.256 288.907 107.304 288.691 110.339C288.691 110.339 297.332 108.123 297.101 97.3887C293.795 98.7639 290.354 99.7864 286.833 100.439H286.775Z" fill="#E0A194"/>
<path d="M181.899 130.326C183.742 131.492 186.219 131.765 187.415 133.694C188.783 135.866 187.415 138.644 187.112 141.191C186.794 143.999 187.59 146.82 189.33 149.047C189.857 149.746 190.456 150.387 191.116 150.961C193.973 153.281 197.518 154.592 201.198 154.688C201.198 154.688 203.228 146.544 203.171 145.709C202.926 142.831 200.953 140.212 200.636 137.233C200.508 134.074 200.219 130.924 199.772 127.794C199.121 124.771 197.773 121.942 195.835 119.532C193.898 117.121 191.424 115.195 188.61 113.908C187.905 113.591 186.896 113.404 186.508 114.081C186.373 114.368 186.338 114.692 186.407 115.002C186.839 118.268 188.97 121.031 191.03 123.635C189.169 122.572 187.173 121.764 185.096 121.232C184.174 120.988 182.806 121.132 182.792 122.081C182.826 122.307 182.907 122.522 183.028 122.715C183.15 122.908 183.309 123.075 183.497 123.204L189.057 128.182C186.801 127.451 184.418 127.191 182.057 127.42C181.662 127.423 181.277 127.554 180.963 127.794C180.271 128.528 181.02 129.78 181.899 130.326Z" fill="#FFBBAB"/>
<path d="M181.899 130.326C183.742 131.492 186.219 131.765 187.415 133.694C188.783 135.866 187.415 138.644 187.112 141.191C186.794 143.999 187.59 146.82 189.33 149.047C189.984 149.443 190.68 149.767 191.404 150.011C191.906 150.24 192.471 150.285 193.003 150.141C193.424 149.91 193.751 149.539 193.927 149.092C194.104 148.645 194.118 148.151 193.968 147.695C193.634 146.796 193.22 145.929 192.729 145.105C192.053 143.629 191.965 141.951 192.484 140.414C193.136 139.231 193.542 137.929 193.68 136.586C193.543 135.75 193.224 134.954 192.744 134.255L191.059 131.377C190.763 130.946 190.566 130.454 190.483 129.938C190.442 129.689 190.48 129.433 190.591 129.207C190.702 128.98 190.88 128.793 191.102 128.672C191.378 128.606 191.665 128.61 191.939 128.683C192.213 128.756 192.465 128.895 192.672 129.089C193.608 129.765 195.84 132.629 195.552 129.967C195.205 128.164 194.547 126.436 193.608 124.858C191.799 121.635 189.681 118.594 187.285 115.779C187.033 115.466 186.754 115.178 186.45 114.915C186.882 118.182 189.013 120.944 191.073 123.549C189.212 122.485 187.216 121.677 185.139 121.146C184.218 120.901 182.849 121.045 182.835 121.995C182.87 122.22 182.95 122.436 183.072 122.629C183.193 122.822 183.353 122.988 183.541 123.117L189.1 128.096C186.844 127.365 184.461 127.105 182.1 127.333C181.705 127.337 181.321 127.468 181.006 127.708C180.271 128.528 181.02 129.78 181.899 130.326Z" fill="#E0A194"/>
<path d="M406.125 128.499C404.282 129.665 401.805 130.01 400.609 131.866C399.169 134.039 400.609 136.816 400.912 139.363C401.231 142.171 400.434 144.992 398.694 147.22C398.167 147.918 397.569 148.56 396.908 149.134C394.051 151.454 390.507 152.764 386.827 152.861C386.827 152.861 384.796 144.716 384.854 143.881C385.098 141.004 387.071 138.385 387.388 135.406C387.516 132.247 387.805 129.096 388.252 125.966C388.904 122.957 390.246 120.141 392.173 117.738C394.1 115.336 396.559 113.414 399.356 112.124C400.062 111.807 401.07 111.62 401.459 112.296C401.593 112.584 401.629 112.908 401.56 113.217C401.128 116.484 398.996 119.247 396.937 121.851C398.798 120.787 400.794 119.979 402.871 119.448C403.778 119.203 405.218 119.318 405.218 120.297C405.183 120.522 405.103 120.738 404.982 120.931C404.86 121.124 404.701 121.29 404.512 121.419L398.953 126.398C401.209 125.667 403.592 125.407 405.953 125.635C406.348 125.639 406.732 125.77 407.047 126.01C407.753 126.7 407.004 127.952 406.125 128.499Z" fill="#FFBBAB"/>
<path d="M406.125 128.499C404.282 129.665 401.805 130.01 400.609 131.866C399.169 134.039 400.609 136.816 400.912 139.363C401.231 142.171 400.434 144.992 398.694 147.22C398.04 147.616 397.345 147.939 396.62 148.184C396.119 148.412 395.553 148.458 395.021 148.313C394.6 148.082 394.273 147.711 394.097 147.264C393.921 146.818 393.906 146.323 394.056 145.867C394.39 144.968 394.805 144.101 395.295 143.277C395.971 141.802 396.059 140.124 395.54 138.586C394.889 137.403 394.482 136.102 394.345 134.758C394.481 133.922 394.801 133.126 395.281 132.427L396.966 129.549C397.262 129.118 397.459 128.627 397.542 128.111C397.582 127.861 397.544 127.606 397.433 127.379C397.322 127.153 397.144 126.966 396.923 126.844C396.647 126.779 396.359 126.782 396.085 126.855C395.811 126.928 395.559 127.068 395.353 127.262C394.417 127.938 392.184 130.801 392.472 128.139C392.819 126.337 393.477 124.608 394.417 123.031C396.226 119.807 398.343 116.767 400.739 113.951C400.991 113.639 401.271 113.35 401.574 113.088C401.142 116.354 399.011 119.117 396.951 121.722C398.812 120.658 400.808 119.85 402.885 119.318C403.778 119.203 405.218 119.318 405.218 120.297C405.183 120.522 405.103 120.738 404.982 120.931C404.86 121.124 404.701 121.29 404.512 121.419L398.953 126.398C401.209 125.667 403.592 125.407 405.953 125.635C406.348 125.639 406.732 125.77 407.047 126.01C407.753 126.7 407.004 127.952 406.125 128.499Z" fill="#E0A194"/>
<path d="M199.124 155.537C203.395 161.597 208.687 166.87 214.764 171.121C219.153 174.1 224.228 175.912 229.512 176.388C230.207 176.449 230.908 176.371 231.572 176.157C232.718 175.832 233.728 175.146 234.452 174.2C236.652 171.578 237.972 168.331 238.226 164.919C238.586 155.998 228.907 150.803 228.907 150.803C228.907 150.803 206.872 143.781 204.251 144.932C202.811 145.551 201.457 148.644 200.506 151.335C199.628 153.58 199.124 155.537 199.124 155.537Z" fill="white"/>
<path d="M302.619 147.211C296.52 140.41 297.092 129.96 303.896 123.869C310.699 117.778 321.159 118.354 327.258 125.155L357.157 158.495C363.255 165.296 362.684 175.747 355.88 181.837C349.076 187.928 338.617 187.353 332.518 180.552L302.619 147.211Z" fill="#1870FF"/>
<path d="M349.856 158.616L381.843 138.759L394.172 154.688C394.172 154.688 363.106 190.101 351.239 188.273C339.372 186.446 335.152 182.935 335.152 182.935C335.152 182.935 330.673 167.509 349.856 158.616Z" fill="white"/>
<path opacity="0.1" d="M199.124 155.537C203.395 161.597 208.687 166.87 214.764 171.121C219.153 174.1 224.228 175.912 229.512 176.388C230.207 176.449 230.908 176.371 231.572 176.157C231.876 176.269 232.189 176.356 232.508 176.416C239.205 177.755 247.99 172.661 254.111 168.214V168.07L252.037 154.688C248.024 158.829 243.358 162.286 238.226 164.919C234.603 166.861 230.465 167.625 226.387 167.106C225.287 166.931 224.216 166.606 223.204 166.142C215.025 162.216 207.394 157.238 200.506 151.335C199.628 153.58 199.124 155.537 199.124 155.537Z" fill="#020202"/>
<path d="M246.334 380.619C246.334 380.619 249.646 384.375 248.35 387.699C247.054 391.023 229.44 412.895 210.329 406.923C191.217 400.951 226.445 386.965 226.445 386.965L246.334 380.619Z" fill="#68E1FD"/>
<path d="M241.884 370.733C241.074 370.635 240.256 370.832 239.58 371.286C238.903 371.74 238.412 372.423 238.197 373.208C237.333 376.086 232.998 381.195 227.64 381.741C222.282 382.288 218.322 377.295 215.845 378.13C213.367 378.964 204.164 394.692 205.115 399.714C206.066 404.736 213.987 405.945 221.562 403.829C229.138 401.714 244.102 390.706 245.931 385.699C247.76 380.691 244.462 372.575 241.884 370.733Z" fill="#1870FF"/>
<path opacity="0.33" d="M277.658 56.8533C277.71 56.9897 277.789 57.1139 277.891 57.2179C277.994 57.322 278.116 57.4038 278.252 57.4579C278.387 57.512 278.532 57.5374 278.678 57.5324C278.824 57.5274 278.967 57.4921 279.099 57.4288C279.603 57.1914 280.039 56.83 280.366 56.3784C280.86 57.7672 280.916 59.2741 280.525 60.6953C280.147 62.107 280.338 63.6103 281.057 64.8826C281.432 65.3863 281.95 65.746 282.354 66.2209C282.582 66.4317 282.756 66.6955 282.859 66.9891C282.962 67.2827 282.991 67.597 282.944 67.9045C282.699 68.883 281.432 69.1707 280.438 69.0125C279.608 68.8852 278.812 68.593 278.097 68.1531C277.382 67.7131 276.763 67.1344 276.276 66.4511C275.288 64.7852 274.725 62.9028 274.634 60.9687C274.432 59.2851 274.116 57.7598 275.282 56.436C275.599 56.0762 276.866 54.9107 277.37 55.1409C278.076 55.4143 277.5 56.2057 277.658 56.8533Z" fill="white"/>
<path opacity="0.33" d="M278.321 87.1721C278.407 87.2729 278.508 87.3736 278.595 87.4887C278.743 87.7574 278.821 88.0594 278.821 88.3665C278.821 88.6735 278.743 88.9755 278.595 89.2442C278.303 89.787 277.918 90.2741 277.457 90.6832C277.342 90.7839 277.226 90.899 277.082 90.8846C276.938 90.8702 276.78 90.6832 276.708 90.5105C276.276 89.0499 276.172 87.5118 276.406 86.0066C276.607 83.7042 276.881 81.4595 277.226 79.2147C277.31 77.1259 277.799 75.0732 278.667 73.1711C278.965 72.7077 279.417 72.3633 279.943 72.1978C280.469 72.0322 281.037 72.0558 281.547 72.2645C283.16 72.9552 282.109 74.7395 281.662 75.9051C281.244 77.3452 280.983 78.8264 280.885 80.3227C280.789 81.8349 280.202 83.2747 279.214 84.4237C278.844 84.7286 278.498 85.0605 278.177 85.4166C278.018 85.5989 277.911 85.8209 277.867 86.0591C277.824 86.2973 277.847 86.5427 277.932 86.7692C278.038 86.9248 278.169 87.0611 278.321 87.1721Z" fill="white"/>
<path opacity="0.33" d="M225.984 155.393C226.655 155.572 227.35 155.645 228.043 155.609C228.933 155.452 229.784 155.124 230.549 154.645C232.394 153.732 234.129 152.612 235.72 151.307C237.314 149.992 238.423 148.185 238.874 146.169C234.899 147.277 231.673 150.976 227.568 150.947C226.248 150.867 224.947 150.59 223.708 150.127L217.645 148.184C213.512 146.875 209.205 145.536 204.928 146.169C204.755 146.179 204.591 146.251 204.467 146.371C204.418 146.439 204.385 146.516 204.37 146.599C204.355 146.681 204.359 146.765 204.381 146.846C204.654 148.515 206.512 148.803 207.808 149.278C209.825 150.026 211.754 151.019 213.771 151.781C217.749 153.278 221.831 154.485 225.984 155.393Z" fill="white"/>
<path opacity="0.33" d="M271.912 131.521C267.558 137.634 264.545 144.597 263.069 151.954C262.133 156.659 261.759 161.681 259.051 165.624C257.164 164.473 256.847 161.912 256.833 159.71C257 152.365 257.795 145.048 259.209 137.838C259.659 134.354 260.499 130.932 261.715 127.636C263.246 124.023 265.65 120.847 268.711 118.391C271.773 115.935 275.396 114.276 279.257 113.563C279.586 113.384 279.962 113.311 280.333 113.354C280.705 113.397 281.054 113.554 281.333 113.803C281.612 114.051 281.807 114.38 281.892 114.744C281.977 115.109 281.947 115.49 281.806 115.836C281.153 120.414 278.817 124.584 275.253 127.535" fill="white"/>
<path d="M384.796 14.2745V89.2155C435.102 80.9271 467.954 67.2425 467.954 51.8025C467.954 36.3625 435.102 22.5917 384.796 14.2745Z" fill="url(#paint0_linear_703_373)"/>
<path d="M327.202 95.7195V382.648C348.056 381.209 367.456 379.007 384.81 376.144C435.117 367.855 467.968 354.171 467.968 338.731V51.7593C467.968 67.2425 435.117 80.927 384.81 89.1723C367.456 92.079 348.056 94.295 327.202 95.7195Z" fill="url(#paint1_linear_703_373)"/>
<path d="M168.764 14.2745V89.2155C118.457 80.9271 85.6062 67.2425 85.6062 51.8025C85.6062 36.3625 118.457 22.5917 168.764 14.2745Z" fill="url(#paint2_linear_703_373)"/>
<path d="M226.358 95.7195V382.648C205.504 381.209 186.104 379.007 168.75 376.144C118.443 367.855 85.5918 354.171 85.5918 338.731V51.7593C85.5918 67.2425 118.443 80.927 168.75 89.1723C186.104 92.079 205.504 94.295 226.358 95.7195Z" fill="url(#paint3_linear_703_373)"/>
<path d="M187.112 154.199V359.121C172.221 358.099 158.308 356.516 145.98 354.473C110.047 348.559 86.5856 338.788 86.5856 327.723V122.801C86.5856 133.866 110.047 143.637 145.98 149.551C158.351 151.594 172.221 153.177 187.112 154.199Z" fill="url(#paint4_linear_703_373)"/>
<path d="M168.764 135.233V340.155C153.872 339.148 139.96 337.565 127.632 335.522C91.6983 329.594 68.2373 319.823 68.2373 308.757V103.835C68.2373 114.901 91.6983 124.671 127.632 130.6C140.017 132.643 153.872 134.226 168.764 135.233Z" fill="white"/>
<path d="M168.764 135.233V340.155C153.872 339.148 139.96 337.565 127.632 335.522C91.6983 329.594 68.2373 319.823 68.2373 308.757V103.835C68.2373 114.901 91.6983 124.671 127.632 130.6C140.017 132.643 153.872 134.226 168.764 135.233Z" fill="url(#paint5_linear_703_373)"/>
<path d="M437.93 276.43C421.324 275.255 409.852 246.22 412.307 211.578C414.762 176.935 430.214 149.804 446.82 150.979C463.426 152.154 474.898 181.189 472.443 215.832C469.988 250.474 454.536 277.605 437.93 276.43Z" fill="#68E1FD"/>
<path d="M437.93 276.43C421.324 275.255 409.852 246.22 412.307 211.578C414.762 176.935 430.214 149.804 446.82 150.979C463.426 152.154 474.898 181.189 472.443 215.832C469.988 250.474 454.536 277.605 437.93 276.43Z" fill="#68E1FD"/>
<path opacity="0.29" d="M437.93 276.43C421.324 275.255 409.852 246.22 412.307 211.578C414.762 176.935 430.214 149.804 446.82 150.979C463.426 152.154 474.898 181.189 472.443 215.832C469.988 250.474 454.536 277.605 437.93 276.43Z" fill="#020202"/>
<path d="M423.509 245.429C427.513 263.804 436.183 276.482 447.042 277.259C463.648 278.439 479.101 251.357 481.607 216.664C484.113 181.971 472.591 152.976 455.986 151.796C439.38 150.616 423.912 177.697 421.421 212.405C420.561 223.456 421.264 234.573 423.509 245.429Z" fill="#4CAF4F"/>
<path d="M86.0239 160.358L86.528 159.019C82.9868 157.771 79.6034 156.115 76.4465 154.084L75.6255 155.278C78.8828 157.368 82.3723 159.073 86.0239 160.358Z" fill="#68E1FD"/>
<path d="M107.512 166.243L107.8 164.804C104.819 164.171 101.924 163.509 99.1587 162.833L98.7986 164.272C101.593 164.962 104.502 165.624 107.512 166.243Z" fill="#68E1FD"/>
<path d="M145.375 171.826L145.505 170.387C145.433 170.387 138.203 169.754 128.38 168.373L128.179 169.812C138.044 171.121 145.303 171.812 145.375 171.826Z" fill="#68E1FD"/>
<path d="M132.067 192.043L132.183 190.604C132.183 190.604 127.948 190.274 121.813 189.439C109.96 187.799 88.2995 183.856 76.4177 175.812L75.5968 176.992C87.7234 185.208 109.629 189.209 121.612 190.863C127.804 191.712 132.024 192.043 132.067 192.043Z" fill="#68E1FD"/>
<path d="M90.0565 173.999L90.4885 172.56C85.5309 171.147 80.7949 169.05 76.4177 166.329L75.5967 167.509C80.0867 170.342 84.9548 172.527 90.0565 173.999Z" fill="#68E1FD"/>
<path d="M112.625 179.107L112.783 177.668C107.174 176.907 101.621 175.773 96.163 174.272L95.803 175.711C101.331 177.205 106.95 178.34 112.625 179.107Z" fill="#68E1FD"/>
<path d="M142.437 182.633L142.523 181.194C142.423 181.194 133.119 180.618 121.338 179.006L121.151 180.445C133.018 182.071 142.336 182.633 142.437 182.633Z" fill="#68E1FD"/>
<path d="M130.138 213.498L130.253 212.059C129.893 212.059 93.7435 209.253 76.4465 197.526L75.6256 198.72C93.225 210.649 128.611 213.383 130.138 213.498Z" fill="#68E1FD"/>
<path d="M130.138 203.526L130.253 202.087C129.893 202.087 93.7435 199.209 76.4465 187.539L75.6256 188.734C93.225 200.677 128.611 203.411 130.138 203.526Z" fill="#68E1FD"/>
<path d="M145.404 236.982V235.543C145.029 235.543 106.72 233.327 87.6369 224.607L87.0321 225.902C106.446 234.752 145.015 236.953 145.404 236.982Z" fill="#68E1FD"/>
<path d="M128.237 256.681L128.337 255.243C127.992 255.243 93.7723 252.681 76.4177 240.968L75.5968 242.148C93.225 254.091 127.891 256.653 128.237 256.681Z" fill="#68E1FD"/>
<path d="M128.237 246.134L128.337 244.695C127.992 244.695 93.7723 242.148 76.4177 230.42L75.5968 231.615C93.225 243.558 127.891 246.12 128.237 246.134Z" fill="#68E1FD"/>
<path d="M145.404 276.28V274.841C145.029 274.841 106.72 272.64 87.6369 263.905L87.0321 265.214C106.446 274.064 145.015 276.266 145.404 276.28Z" fill="#68E1FD"/>
<path d="M128.237 295.979L128.337 294.54C127.992 294.54 93.7723 291.994 76.4177 280.266L75.5968 281.46C93.225 293.432 127.891 295.951 128.237 295.979Z" fill="#68E1FD"/>
<path d="M128.237 285.446L128.337 284.007C127.992 284.007 93.7723 281.446 76.4177 269.733L75.5968 270.913C93.225 282.856 127.891 285.417 128.237 285.446Z" fill="#68E1FD"/>
<path d="M423.509 245.429L455.942 209.656V151.796C439.337 150.616 423.869 177.697 421.377 212.405C420.532 223.458 421.249 234.575 423.509 245.429Z" fill="#68E1FD"/>
<path d="M423.509 245.429L455.942 209.656V151.796C439.337 150.616 423.869 177.697 421.377 212.405C420.532 223.458 421.249 234.575 423.509 245.429Z" fill="white"/>
<path d="M423.509 245.429L455.942 209.656V151.796C439.337 150.616 423.869 177.697 421.377 212.405C420.532 223.458 421.249 234.575 423.509 245.429Z" fill="#68E1FD"/>
<path opacity="0.29" d="M423.509 245.429L455.942 209.656V151.796C439.337 150.616 423.869 177.697 421.377 212.405C420.532 223.458 421.249 234.575 423.509 245.429Z" fill="#020202"/>
<path d="M319.223 389.253C319.223 389.253 323.14 392.361 322.449 395.872C321.758 399.383 308.292 424.004 288.417 421.5C268.542 418.996 300.76 399.066 300.76 399.066L319.223 389.253Z" fill="#68E1FD"/>
<path d="M313.045 380.317C312.232 380.365 311.462 380.701 310.876 381.266C310.29 381.831 309.925 382.586 309.847 383.396C309.502 386.36 306.146 392.174 300.976 393.656C295.805 395.138 291.009 390.922 288.719 392.217C286.429 393.512 280.15 410.593 281.979 415.384C283.808 420.176 291.801 419.946 298.887 416.521C305.973 413.096 318.762 399.642 319.67 394.39C320.577 389.138 315.925 381.684 313.045 380.317Z" fill="#1870FF"/>
<path d="M455.942 151.796L444.233 151.033C444.233 151.033 424.863 150.314 415.184 192.101C410.803 210.099 410.763 228.88 415.069 246.897L423.509 245.458C423.509 245.458 415.602 160.257 455.942 151.796Z" fill="#68E1FD"/>
<path opacity="0.62" d="M455.942 151.796L444.233 151.033C444.233 151.033 424.863 150.314 415.184 192.101C410.803 210.099 410.763 228.88 415.069 246.897L423.509 245.458C423.509 245.458 415.602 160.257 455.942 151.796Z" fill="#020202"/>
</g>
<defs>
<linearGradient id="paint0_linear_703_373" x1="528.299" y1="144.356" x2="239.778" y2="-74.9528" gradientUnits="userSpaceOnUse">
<stop offset="0.01"/>
<stop offset="0.13" stop-opacity="0.69"/>
<stop offset="0.25" stop-opacity="0.32"/>
<stop offset="1" stop-opacity="0"/>
</linearGradient>
<linearGradient id="paint1_linear_703_373" x1="678.167" y1="382.605" x2="-36.8645" y2="-39.6559" gradientUnits="userSpaceOnUse">
<stop offset="0.01"/>
<stop offset="0.13" stop-opacity="0.69"/>
<stop offset="0.25" stop-opacity="0.32"/>
<stop offset="1" stop-opacity="0"/>
</linearGradient>
<linearGradient id="paint2_linear_703_373" x1="30.1868" y1="152.141" x2="367.057" y2="-142.532" gradientUnits="userSpaceOnUse">
<stop offset="0.01"/>
<stop offset="0.13" stop-opacity="0.69"/>
<stop offset="0.25" stop-opacity="0.32"/>
<stop offset="1" stop-opacity="0"/>
</linearGradient>
<linearGradient id="paint3_linear_703_373" x1="-63.1101" y1="247.746" x2="594.67" y2="155.855" gradientUnits="userSpaceOnUse">
<stop offset="0.01"/>
<stop offset="0.13" stop-opacity="0.69"/>
<stop offset="0.25" stop-opacity="0.32"/>
<stop offset="1" stop-opacity="0"/>
</linearGradient>
<linearGradient id="paint4_linear_703_373" x1="-18.4346" y1="174.042" x2="383.436" y2="357.788" gradientUnits="userSpaceOnUse">
<stop offset="0.01"/>
<stop offset="0.13" stop-opacity="0.69"/>
<stop offset="0.25" stop-opacity="0.32"/>
<stop offset="1" stop-opacity="0"/>
</linearGradient>
<linearGradient id="paint5_linear_703_373" x1="-40.7148" y1="223.442" x2="262.147" y2="220.703" gradientUnits="userSpaceOnUse">
<stop offset="0.01"/>
<stop offset="0.13" stop-opacity="0.69"/>
<stop offset="0.25" stop-opacity="0.32"/>
<stop offset="1" stop-opacity="0"/>
</linearGradient>
<clipPath id="clip0_703_373">
<rect width="532" height="471" fill="white" transform="matrix(-1 0 0 1 532 0)"/>
</clipPath>
</defs>
</svg>
