<svg width="49" height="48" viewBox="0 0 49 48" fill="none" xmlns="http://www.w3.org/2000/svg">
<g clip-path="url(#clip0_394_314)">
<g clip-path="url(#clip1_394_314)">
<g clip-path="url(#clip2_394_314)">
<path d="M14.3372 1.12941C12.1931 2.64473 11.9634 4.02348 11.9634 4.80982C11.9634 4.80982 11.9386 6.47273 11.4937 7.36543C11.0488 8.25813 10.9099 8.59472 9.8494 8.74153C9.27147 8.63405 8.98224 8.08927 8.67494 7.7586C8.01921 7.05302 7.52628 6.0505 6.50769 5.74605C4.74079 5.21793 0.249133 4.64601 0.510979 7.05658C0.873663 10.3955 4.80067 12.6053 6.54328 15.4559C8.65282 18.9066 6.91796 20.6119 4.01648 23.1106C-0.56188 27.0533 0.37849 32.2347 1.13378 37.2583C1.5819 40.2389 2.28726 43.203 5.35106 45.0768C8.28994 46.8742 11.8365 48.0812 15.5117 47.9957C18.6255 47.9233 21.0241 46.5621 23.2166 44.8237C24.6353 43.6989 26.0061 42.2912 28.0567 42.0388C32.8556 41.4482 36.2787 45.6677 40.7797 45.3002C49.1278 44.6186 50.03 34.7008 46.6875 29.8866C44.2854 26.427 35.2927 24.6472 39.6409 19.8342C41.8264 17.4152 44.6317 15.2007 45.7621 12.2391C46.5793 10.0983 46.195 6.9995 43.3421 6.07368C37.8771 4.3002 31.6667 7.72942 25.9748 6.74384C23.0447 6.23649 22.7678 3.70237 21.7753 1.81446C20.4915 -0.627342 16.4215 -0.343595 14.3372 1.12941Z" fill="#00B99A"/>
<path d="M19.0219 35.1862C18.1295 35.279 17.362 35.0647 16.7195 34.5433C16.0769 34.0218 15.7102 33.3246 15.6194 32.4516C15.5427 31.7144 15.6691 31.0443 15.9986 30.4413C16.3261 29.819 16.9041 29.249 17.7327 28.7314C19.5524 27.5616 21.0904 26.323 22.3467 25.0157C23.6204 23.687 24.1897 22.3728 24.0545 21.073C23.9838 20.3939 23.7256 19.8913 23.2799 19.5651C22.8535 19.2369 22.2815 19.1101 21.5637 19.1848C20.9817 19.2453 20.5051 19.4714 20.134 19.8629C19.7824 20.2525 19.5853 20.7142 19.5428 21.2481C19.5282 21.485 19.5269 21.6616 19.5391 21.778L19.5451 21.8362C19.6178 22.5346 19.4338 23.1224 18.9932 23.5997C18.5526 24.0769 17.9734 24.3529 17.2556 24.4276C16.4796 24.5083 15.8014 24.3043 15.2211 23.8156C14.6388 23.3075 14.3042 22.6363 14.2174 21.8021C14.0842 20.5217 14.3037 19.3321 14.8757 18.2332C15.4651 17.113 16.3213 16.2003 17.4441 15.4952C18.565 14.7707 19.8432 14.3338 21.2788 14.1844C23.5292 13.9503 25.4037 14.3436 26.9022 15.3644C28.4201 16.3831 29.29 17.9594 29.512 20.0934C29.8652 23.4884 27.9395 26.5616 23.735 29.313L28.4492 28.8226C29.2447 28.7398 29.9218 28.9341 30.4807 29.4055C31.0376 29.8574 31.3564 30.4714 31.4371 31.2474C31.5158 32.004 31.3292 32.6607 30.8772 33.2176C30.4427 33.753 29.818 34.0631 29.0032 34.1479L19.0219 35.1862Z" fill="white"/>
</g>
</g>
</g>
<defs>
<clipPath id="clip0_394_314">
<rect width="48" height="48" fill="white" transform="translate(0.5)"/>
</clipPath>
<clipPath id="clip1_394_314">
<rect width="48" height="48" fill="white" transform="translate(0.5)"/>
</clipPath>
<clipPath id="clip2_394_314">
<rect width="48" height="48" fill="white" transform="translate(0.5)"/>
</clipPath>
</defs>
</svg>
