<svg width="48" height="48" viewBox="0 0 48 48" fill="none" xmlns="http://www.w3.org/2000/svg">
<g clip-path="url(#clip0_394_324)">
<g clip-path="url(#clip1_394_324)">
<path d="M24.5846 44.5541C20.5204 44.6105 17.3785 44.6171 16.6921 44.4099C16.0058 44.2026 14.3188 43.6494 13.385 44.2133C12.4512 44.7771 12.1589 45.9124 11.1938 46.4185C9.72926 47.1865 8.72842 47.9182 6.88884 47.9923C3.73673 48.1192 0.817447 46.6808 0.18238 43.672C-0.596484 39.9818 1.18818 37.566 4.22175 35.332C5.46133 34.4192 7.66771 33.0693 8.11725 31.5831C8.46795 30.4237 7.37147 29.4071 6.67857 28.5659C2.24535 23.1834 1.13357 15.4921 4.11108 9.24974C5.55353 6.22564 7.88412 2.65133 12.0349 3.65638C13.8286 4.09071 15.4609 4.97954 17.3691 4.97954C19.2027 4.97954 21.0082 4.24977 22.659 3.60626C24.9857 2.69924 27.1349 1.41062 29.5314 0.659216C31.8913 -0.0806906 34.4037 -0.072901 36.8687 0.0878542C40.094 0.298193 44.3876 0.443903 47.2272 2.0325C48.4765 2.73138 47.9397 4.09496 47.4928 5.09983C46.2959 7.79145 43.9554 9.98792 42.1144 12.3171C40.6412 14.1808 37.9818 17.0413 38.7501 19.5544C39.3322 21.4583 40.8421 20.8533 42.5451 21.8219C43.7056 22.4819 43.859 24.7653 43.1325 25.5687C41.6882 27.1661 40.007 28.8667 40.5208 31.0819C40.8683 32.5803 41.7763 33.8583 42.3357 35.2819C43.5092 38.2683 42.1912 40.4591 39.2591 41.9078C34.7215 44.1496 29.6557 44.4837 24.5846 44.5541Z" fill="#8B7FFF"/>
<path d="M22.2841 33.3813C19.1798 32.9078 16.8973 31.5732 15.4368 29.3774C15.1782 29.0026 14.9782 28.5676 14.8367 28.0725C14.7145 27.5803 14.6842 27.1317 14.746 26.7268C14.8548 26.0134 15.1788 25.4413 15.7181 25.0106C16.2766 24.5828 16.9125 24.4233 17.626 24.5321C18.2044 24.6203 18.6755 24.8303 19.0393 25.162C19.4059 25.4744 19.7462 25.9604 20.0599 26.6199C20.6279 27.8114 21.5964 28.5116 22.9654 28.7204C23.621 28.8204 24.1763 28.7373 24.6312 28.4713C25.089 28.186 25.3577 27.783 25.4371 27.2624C25.5194 26.7225 25.3817 26.2675 25.0238 25.8972C24.6659 25.5269 24.1014 25.283 23.3301 25.1653L22.1153 24.9801C21.3633 24.8654 20.7787 24.5592 20.3613 24.0614C19.9469 23.5444 19.7912 22.9485 19.8941 22.2736C20.0029 21.5602 20.3225 21.017 20.853 20.6441C21.4026 20.2742 22.0631 20.148 22.8344 20.2657L23.9045 20.4289C24.6179 20.5377 25.1895 20.4769 25.6193 20.2465C26.0683 20.019 26.3325 19.645 26.4119 19.1244C26.4855 18.6423 26.3515 18.2273 26.0099 17.8792C25.6714 17.5119 25.155 17.2753 24.4608 17.1694C23.8631 17.0783 23.3026 17.1309 22.7794 17.3273C22.2784 17.5074 21.8302 17.7942 21.4348 18.1877C20.5491 19.0786 19.6629 19.4564 18.7759 19.3211C18.0817 19.2152 17.5371 18.9053 17.142 18.3912C16.7691 17.8608 16.637 17.2389 16.7459 16.5255C16.8811 15.6385 17.4006 14.82 18.3042 14.0699C19.1411 13.3689 20.1622 12.8834 21.3675 12.6135C22.5921 12.3464 23.8888 12.3173 25.2578 12.5261C26.7811 12.7585 28.054 13.2091 29.0766 13.8781C30.1215 14.5307 30.8654 15.3446 31.3086 16.3198C31.7547 17.2757 31.891 18.3224 31.7175 19.4601C31.5675 20.4434 31.1749 21.2714 30.5396 21.944C29.9043 22.6166 29.0781 23.0529 28.0611 23.2529C29.0641 23.6624 29.8109 24.3287 30.3014 25.252C30.8142 26.1588 30.9882 27.1522 30.8235 28.232C30.6383 29.4467 30.1636 30.4891 29.3995 31.3591C28.6384 32.2097 27.6382 32.8168 26.399 33.1803C25.179 33.5466 23.8074 33.6137 22.2841 33.3813Z" fill="white"/>
</g>
</g>
<defs>
<clipPath id="clip0_394_324">
<rect width="48" height="48" fill="white"/>
</clipPath>
<clipPath id="clip1_394_324">
<rect width="48" height="48" fill="white"/>
</clipPath>
</defs>
</svg>
