<svg width="49" height="48" viewBox="0 0 49 48" fill="none" xmlns="http://www.w3.org/2000/svg">
<g clip-path="url(#clip0_394_307)">
<path d="M31.9264 0.0343604C26.4482 0.396643 24.2093 2.24062 19.4443 4.56763L16.9679 6.28318C16.7725 6.65542 16.3823 6.89033 16.1908 7.30067C15.8293 8.07536 15.6309 8.82591 15.4569 9.65425L15.4482 9.69582C15.151 11.1115 14.7314 13.1106 13.1689 13.7653C12.1921 14.1746 11.4838 13.9323 10.5139 13.6831C9.42601 13.4035 8.17398 13.4332 7.0603 13.5392C5.52494 13.6854 4.1799 14.1003 2.88357 14.8959C1.0762 16.005 0.418864 17.1467 0.584741 19.2228C0.991517 24.3139 7.12847 24.17 10.8593 26.1191C11.8411 26.632 14.6662 27.9517 14.7986 29.2126C14.8817 30.0043 13.9695 30.7833 13.4603 31.2682C11.3591 33.2691 8.51114 34.9011 10.5895 37.9281C11.7741 39.6534 13.4446 41.2404 14.9821 42.6867C16.06 43.7006 17.0474 44.1932 18.5652 44.2078C20.1915 44.2234 21.866 44.0847 23.4866 44.2283C25.0426 44.3661 26.433 45.4206 27.6155 46.3174L27.6526 46.3455C29.5469 47.782 31.1715 48.5062 33.5669 47.5994C36.8481 46.3573 39.9218 43.8028 41.9851 41.1245C46.6574 35.0593 52.0607 24.6925 45.5575 18.0408C43.0074 15.4325 39.2654 13.6971 37.1069 10.7642C36.3981 9.80121 36.2368 8.54138 36.4377 7.39317C36.7477 5.622 38.3418 4.58994 38.1322 2.5935C37.8595 -0.00337648 33.8197 -0.0908422 31.9264 0.0343604Z" fill="#F9C558"/>
<path d="M27.347 34.2309C26.5754 34.1152 25.9668 33.7676 25.5212 33.188C25.0756 32.6084 24.9135 31.9135 25.0349 31.1033L26.4101 21.9314L22.8801 21.4022C22.2629 21.3097 21.7517 21.0358 21.3466 20.5806C20.9637 20.109 20.8156 19.5838 20.9024 19.0051C20.9891 18.4264 21.2625 17.9843 21.7225 17.6786C22.2018 17.3757 22.7559 17.2318 23.3847 17.2472C24.408 17.2626 25.2808 17.0976 26.0032 16.7523C26.7448 16.4098 27.3205 15.9243 27.7304 15.2954C28.0872 14.7573 28.512 14.3575 29.0048 14.0961C29.5169 13.8376 30.072 13.7531 30.6699 13.8428C31.3836 13.9498 31.9372 14.2694 32.3308 14.8018C32.7272 15.3149 32.8719 15.9281 32.7649 16.6418L30.4745 31.919C30.353 32.7291 29.9943 33.3458 29.3983 33.7692C28.8023 34.1927 28.1185 34.3466 27.347 34.2309Z" fill="white"/>
</g>
<defs>
<clipPath id="clip0_394_307">
<rect width="48" height="48" fill="white" transform="translate(0.559998)"/>
</clipPath>
</defs>
</svg>
